<?xml version="1.0" encoding="utf-8"?>
<!-- Generator: Adobe Illustrator 19.0.0, SVG Export Plug-In . SVG Version: 6.00 Build 0)  -->
<svg version="1.1" id="Layer_1" xmlns="http://www.w3.org/2000/svg" xmlns:xlink="http://www.w3.org/1999/xlink" x="0px" y="0px"
	 viewBox="0 0 57.4 17.7" style="enable-background:new 0 0 57.4 17.7;" xml:space="preserve">
<style type="text/css">
	.st0{fill:#FFFFFF;}
	.st1{fill:#CE0E1E;}
</style>
<g id="XMLID_15_">
	<g id="XMLID_382_">
		<path id="XMLID_384_" class="st0" d="M3.4,3.7c0.7,0,1.2,0.1,1.7,0.2C5.6,4,6,4.2,6.3,4.5C6.6,4.7,6.8,5,7,5.4
			c0.2,0.4,0.2,0.8,0.2,1.3c0,0.3-0.1,0.6-0.2,0.9C7,7.8,6.8,8.1,6.6,8.3C6.4,8.6,6.2,8.8,5.9,9c-0.3,0.2-0.6,0.3-1,0.4
			C5.8,9.5,6.5,9.8,7,10.3c0.5,0.5,0.7,1.1,0.7,1.9c0,0.5-0.1,0.9-0.3,1.3c-0.2,0.4-0.4,0.7-0.8,1c-0.3,0.3-0.7,0.5-1.2,0.6
			c-0.5,0.1-1,0.2-1.7,0.2H0V3.7H3.4z M0.8,4.3v4.8h2.5c0.5,0,1-0.1,1.4-0.2c0.4-0.1,0.7-0.3,0.9-0.5c0.2-0.2,0.4-0.5,0.5-0.8
			C6.3,7.3,6.4,7,6.4,6.7c0-0.8-0.2-1.4-0.7-1.8C5.2,4.5,4.4,4.3,3.4,4.3H0.8z M3.8,14.7c1,0,1.8-0.2,2.3-0.7
			c0.5-0.4,0.8-1.1,0.8-1.9c0-0.4-0.1-0.7-0.2-1s-0.3-0.5-0.6-0.7c-0.3-0.2-0.6-0.4-1-0.5C4.7,9.8,4.3,9.7,3.8,9.7H0.8v4.9H3.8z"/>
		<path id="XMLID_402_" class="st0" d="M19.1,15.3h-0.7c-0.1,0-0.1,0-0.2-0.1c0,0-0.1-0.1-0.1-0.2l-1.4-3.4h-5.7l-1.4,3.4
			c0,0.1-0.1,0.1-0.1,0.2c-0.1,0-0.1,0.1-0.2,0.1H8.7l4.8-11.6h0.8L19.1,15.3z M16.5,11.1l-2.4-5.9C14.1,5,14,4.8,13.9,4.5
			c0,0.1-0.1,0.3-0.1,0.4c0,0.1-0.1,0.2-0.1,0.3l-2.4,5.9H16.5z"/>
		<path id="XMLID_427_" class="st0" d="M29.1,15.3h-0.7c-0.1,0-0.2,0-0.2,0c-0.1,0-0.1-0.1-0.2-0.2l-3.7-4.7c0-0.1-0.1-0.1-0.1-0.2
			c0,0-0.1-0.1-0.2-0.1c-0.1,0-0.1,0-0.2-0.1c-0.1,0-0.2,0-0.3,0h-1.5v5.3H21V3.7h3c1.3,0,2.3,0.3,3,0.8c0.7,0.5,1,1.3,1,2.3
			C28,7.2,28,7.6,27.8,8c-0.2,0.4-0.4,0.7-0.7,1c-0.3,0.3-0.6,0.5-1,0.7c-0.4,0.2-0.9,0.3-1.4,0.4c0.1,0.1,0.2,0.2,0.4,0.3
			L29.1,15.3z M23.9,9.4c0.5,0,1-0.1,1.4-0.2c0.4-0.1,0.8-0.3,1-0.5c0.3-0.2,0.5-0.5,0.6-0.8c0.1-0.3,0.2-0.7,0.2-1.1
			c0-0.8-0.3-1.4-0.8-1.8c-0.5-0.4-1.3-0.6-2.4-0.6h-2.1v5.1H23.9z"/>
	</g>
	<g id="XMLID_29_">
		<path id="XMLID_31_" class="st1" d="M41.9,15.6c0.2,0,0.4,0.1,0.6,0.2c0.1,0.1,0.2,0.3,0.2,0.5v1.3H31v-0.7c0-0.2,0-0.3,0.1-0.5
			c0.1-0.2,0.2-0.3,0.3-0.5l5.6-5.6c0.5-0.5,0.9-0.9,1.3-1.4c0.4-0.4,0.7-0.9,1-1.3c0.3-0.4,0.5-0.9,0.6-1.3
			c0.1-0.5,0.2-0.9,0.2-1.4c0-0.5-0.1-1-0.2-1.3c-0.2-0.4-0.4-0.7-0.7-1c-0.3-0.3-0.6-0.4-1-0.6c-0.4-0.1-0.8-0.2-1.2-0.2
			c-0.4,0-0.9,0.1-1.2,0.2c-0.4,0.1-0.7,0.3-1,0.5c-0.3,0.2-0.5,0.5-0.7,0.8c-0.2,0.3-0.3,0.7-0.4,1c-0.1,0.3-0.2,0.5-0.4,0.6
			c-0.2,0.1-0.4,0.1-0.7,0.1l-1.1-0.2c0.1-0.8,0.3-1.5,0.7-2.1c0.3-0.6,0.7-1.1,1.2-1.5c0.5-0.4,1.1-0.7,1.7-0.9
			C35.6,0.1,36.3,0,37.1,0c0.7,0,1.4,0.1,2.1,0.3c0.6,0.2,1.2,0.5,1.7,1c0.5,0.4,0.8,0.9,1.1,1.5c0.3,0.6,0.4,1.3,0.4,2
			c0,0.7-0.1,1.3-0.3,1.8c-0.2,0.6-0.5,1.1-0.8,1.6c-0.3,0.5-0.7,1-1.2,1.5c-0.4,0.5-0.9,1-1.4,1.5l-4.6,4.7c0.3-0.1,0.7-0.2,1-0.2
			c0.3-0.1,0.7-0.1,1-0.1H41.9z"/>
		<path id="XMLID_34_" class="st1" d="M57.4,8.9c0,1.5-0.2,2.9-0.5,4s-0.8,2-1.3,2.8c-0.6,0.7-1.2,1.3-2,1.6
			c-0.8,0.4-1.6,0.5-2.5,0.5c-0.9,0-1.7-0.2-2.5-0.5c-0.8-0.4-1.4-0.9-2-1.6c-0.6-0.7-1-1.7-1.3-2.8c-0.3-1.1-0.5-2.4-0.5-4
			c0-1.5,0.2-2.9,0.5-4c0.3-1.1,0.8-2.1,1.3-2.8c0.6-0.7,1.2-1.3,2-1.6C49.3,0.2,50.2,0,51.1,0c0.9,0,1.7,0.2,2.5,0.5
			c0.8,0.4,1.4,0.9,2,1.6c0.6,0.7,1,1.7,1.3,2.8C57.2,6.1,57.4,7.4,57.4,8.9z M55.2,8.9c0-1.3-0.1-2.5-0.3-3.4
			c-0.2-0.9-0.5-1.6-0.9-2.2c-0.4-0.6-0.8-0.9-1.3-1.2c-0.5-0.2-1-0.4-1.5-0.4c-0.5,0-1.1,0.1-1.5,0.4c-0.5,0.2-0.9,0.6-1.3,1.2
			c-0.4,0.6-0.7,1.3-0.9,2.2c-0.2,0.9-0.3,2-0.3,3.4c0,1.3,0.1,2.5,0.3,3.4c0.2,0.9,0.5,1.6,0.9,2.2c0.4,0.6,0.8,0.9,1.3,1.2
			c0.5,0.2,1,0.4,1.5,0.4c0.5,0,1.1-0.1,1.5-0.4c0.5-0.2,0.9-0.6,1.3-1.2c0.4-0.6,0.7-1.3,0.9-2.2C55,11.4,55.2,10.3,55.2,8.9z"/>
	</g>
</g>
</svg>
