<svg xmlns="http://www.w3.org/2000/svg" xmlns:xlink="http://www.w3.org/1999/xlink" version="1.1" id="Layer_1" x="0" y="0" viewBox="0 0 150 21.1" xml:space="preserve" enable-background="new 0 0 150 21.1"><style>.s0{overflow:visible;}</style><style type="text/css">
	.st0{clip-path:url(#XMLID_106_);fill:#272626;}
	.st1{fill:#272626;}
	.st2{clip-path:url(#XMLID_107_);fill:#272626;}
</style><g id="XMLID_432_"><g id="XMLID_870_"><defs><rect id="XMLID_871_" width="150" height="21.1"/></defs><clipPath id="XMLID_106_"><use xlink:href="#XMLID_871_" overflow="visible"/></clipPath><path id="XMLID_872_" class="st0" d="M9.3 0c0.4 0 1.1 0.2 1.6 0.7 0.5 0.5 0.6 1.3 0.5 2 -0.2 0.6-0.3 1-1 1.4C9.7 4.5 8.9 4.5 8.9 4.5v2.7l1.3 1.1L8.9 9.4l0 3.7c0 0 1.3-0.8 2.2-2.5 0 0 0-0.1 0.1-0.3 0.1 0.5 0 1.4-0.5 2.6 -0.4 0.9-1.1 1.8-2 2.2 -1.6 0.9-2.8 1-4 0.7 -1.5-0.3-2.8-1.1-3.7-2.6C0.3 12.2 0 11 0 9.8c0.1-2.5 1.9-4.7 4.1-5.5 0.3-0.1 0.4-0.2 0.7-0.2C4.7 4.2 4.5 4.3 4.2 4.5 3.5 5 2.9 5.9 2.7 6.6l4.2-1.9v5.9l-3.4 1.7C3.9 12.8 5 13.6 6 13.7c1.7 0.2 2.7-0.6 2.7-0.6l0-3.8L7.4 8.3l1.3-1.1V4.5C8 4.4 7.1 4.2 6.6 4 5.9 3.9 3.4 3.1 3 3.1 2.6 3 2.1 3.1 1.8 3.3 1.5 3.6 1.3 4 1.5 4.5 1.5 4.7 1.7 4.8 1.8 5c0 0-0.1 0-0.4-0.2C0.9 4.5 0.6 4 0.5 3.3 0.5 2.4 0.8 1.6 1.6 1 2.2 0.6 3 0.4 3.8 0.5 5 0.7 6.7 1.3 8.2 1.7c0.6 0.1 1 0.2 1.4 0 0.2-0.1 0.5-0.5 0.2-0.9C9.5 0.2 8.9 0.2 8.4 0.1 8.8 0 8.9 0 9.3 0L9.3 0zM4.3 11.7V6L2.6 6.8c0 0-0.4 1-0.4 2.4 0.1 1.1 0.7 2.4 1.1 3L4.3 11.7"/></g><path id="XMLID_867_" class="st1" d="M25.5 5.7c0 0-1.3 0.8-2.1 1.3 -0.9 0.5-2 1.1-2 1.1v5.4l-0.8 0.6 0.1 0.1 0.8-0.6 2.4 2.1 4.1-3.3 -0.1-0.1 -2.3 1.8 -1.9-1.7 0-0.7L27.4 9 25.5 5.7 25.5 5.7zM25.6 10.2l-1.9 1.4V6.9L25.6 10.2M14.8 17.8c0.5 0.1 1.5 0.2 2.6-0.4 1.3-0.6 1.9-2 1.9-3.4l0.1-2 0-4.3 0.8-0.6 -0.1-0.1 -0.8 0.6 -1.8-2 -2.4 2V0.8l-3 2.3c0.1 0.1 0.5 0.2 0.6 0.7v9.7l-1.3 0.9 0.1 0.1 0.6-0.5 1.7 1.6 2.6-2.1 -0.1-0.1 -0.6 0.5 -0.7-0.7 0-5.4 0.8-0.7L17 8.6c0 0 0 3.5 0 4.6 0 1.2 0 2.8-0.7 3.5C15.7 17.5 15.4 17.6 14.8 17.8M33.1 17.3c-1.1-0.1-1.5-0.8-1.5-1.3 0-0.3 0.3-1 0.9-1 0.6-0.1 1.3 0.2 1.9 0.9l2.4-2.7 -0.1-0.1 -0.7 0.7c-0.7-0.8-1.6-1.2-2.6-1.4V4.2l6.3 11.6c0 0 0.1 0.1 0.3 0.1 0.2 0 0.2-0.2 0.2-0.2l0-11.6c0.5 0 1.3-0.3 1.7-0.7 1.2-1.3 0.7-2.6 0.6-2.8 -0.1 0.6-0.5 1.2-1.3 1.2 -1 0-1.6-0.7-1.6-0.7l-2.4 2.8L37.4 4l0.7-0.8C39 4 39.6 4 40.2 4.1l0 6.7 -4.7-8.6c-0.4-0.7-1.1-1.3-2.1-1.3 -1.2 0-2 1-2.1 1.9 -0.1 1 0 1.2 0 1.2S31.5 3 32.2 3c0.6 0 0.9 0.6 1.2 1v2.5c-0.6 0-2.3 0.1-2.4 1.9 0 0.6 0.4 1.3 0.7 1.5 0.5 0.3 0.8 0.3 0.8 0.3S32 9.9 32.2 9.3c0.1-0.5 1.2-0.6 1.2-0.4l0 3.5c-0.5 0-2.1 0-2.9 1.4 -0.4 0.8-0.4 1.8 0.1 2.5C31 16.9 31.8 17.5 33.1 17.3M46.5 5.7c0 0-1.3 0.8-2.1 1.3 -0.9 0.5-2 1.1-2 1.1v5.4l-0.8 0.6 0.1 0.1 0.8-0.6 2.4 2.1 4.1-3.3 -0.1-0.1 -2.3 1.8 -1.9-1.7 0-0.7L48.4 9 46.5 5.7 46.5 5.7zM46.6 10.2l-1.9 1.4V6.9L46.6 10.2M52.3 15.8l-2-1.7 -0.9 0.6 -0.1-0.1 0.9-0.7V9.3c0-1.9-1.8-1.4-1.7-3.5 0-0.9 0.9-1.6 1.4-1.8 0.5-0.2 1-0.2 1-0.2S50 4.3 50.2 5c0.3 1.1 2.3 1.2 2.3 2.8v5.3l1.4 1.2 0.4-0.3V8.2l-0.8-0.8 2-1.8 1.8 1.6 -0.7 0.8v5.1l1.7 1.4 0.3-0.2V8.2l-0.8-0.7 2-1.8 1.9 1.5 0.7-0.7 0.1 0.1L61 8.2v5l-4.3 2.7 -2.2-1.7L52.3 15.8M140.5 5.7c0 0-1.3 0.8-2.1 1.3 -0.9 0.5-2 1.1-2 1.1v5.4l-0.8 0.6 0.1 0.1 0.8-0.6 2.4 2.1 4.1-3.3 -0.1-0.1 -2.3 1.8 -1.9-1.7v-0.7l3.7-2.8L140.5 5.7 140.5 5.7zM140.5 10.2l-1.9 1.4V6.9L140.5 10.2"/><polyline id="XMLID_789_" class="st1" points="121.2 8 121.3 8.1 122.1 7.4 123.2 8.7 123.2 13.2 122.7 13.7 124.4 15.7 126.3 13.9 125.5 13.1 125.5 7.7 126 7.4 127.2 8.9 127.2 13.3 126.8 13.8 128.5 15.7 130.3 13.9 129.6 13.2 129.6 7.8 130.1 7.4 131.4 8.8 131.4 13.3 130.9 13.7 132.8 15.7 135.3 13.4 135.2 13.3 134.6 13.9 133.7 12.8 133.7 7.8 134.6 7.1 134.5 7 133.6 7.7 131.9 5.7 129.4 7.7 127.7 5.8 125.4 7.7 123.7 5.8 121.2 8 "/><polyline id="XMLID_788_" class="st1" points="116.1 7.9 116.2 8 116.9 7.4 117.9 8.6 117.9 13.7 117.2 14.3 117.3 14.5 118 13.8 119.7 15.7 122 13.6 121.9 13.5 121.2 14.1 120.3 13 120.3 8 121.1 7.3 121 7.1 120.2 7.8 118.5 5.8 116.1 7.9 "/><g id="XMLID_778_"><defs><rect id="XMLID_779_" width="150" height="21.1"/></defs><clipPath id="XMLID_107_"><use xlink:href="#XMLID_779_" overflow="visible"/></clipPath><polyline id="XMLID_787_" class="st2" points="116.8 3.6 118.6 2 120 3.6 118.2 5.2 116.8 3.6 "/><path id="XMLID_784_" class="st2" d="M114.4 0c0.4 0 1.1 0.2 1.6 0.7 0.5 0.5 0.6 1.3 0.5 2 -0.2 0.6-0.3 1-1 1.4 -0.6 0.4-1.4 0.4-1.4 0.4v2.7l1.3 1.1L114 9.4v3.7c0 0 1.3-0.8 2.2-2.5 0 0 0-0.1 0.1-0.3 0.1 0.5 0 1.4-0.5 2.6 -0.4 0.9-1.1 1.8-2 2.2 -1.6 0.9-2.8 1-4 0.7 -1.5-0.3-2.8-1.1-3.7-2.6 -0.6-1-0.9-2.2-0.9-3.5 0.1-2.5 1.9-4.7 4.1-5.5 0.3-0.1 0.4-0.2 0.7-0.2 -0.2 0.1-0.4 0.3-0.6 0.4 -0.7 0.5-1.3 1.4-1.5 2.1l4.2-1.9v5.9l-3.4 1.7c0.4 0.5 1.6 1.3 2.6 1.5 1.7 0.2 2.7-0.6 2.7-0.6V9.4l-1.3-1.1 1.3-1.1V4.5c-0.7-0.1-1.6-0.3-2.1-0.4 -0.8-0.2-3.3-0.9-3.7-0.9 -0.4-0.1-0.9 0-1.2 0.2 -0.3 0.3-0.5 0.7-0.4 1.2 0.1 0.2 0.2 0.4 0.4 0.5 0 0-0.1 0-0.4-0.2 -0.5-0.3-0.8-0.8-0.9-1.5 -0.1-0.9 0.3-1.7 1.1-2.2 0.6-0.4 1.4-0.7 2.2-0.6 1.2 0.2 2.9 0.9 4.4 1.2 0.6 0.1 1 0.2 1.4 0 0.2-0.1 0.5-0.5 0.2-0.9 -0.3-0.5-0.9-0.5-1.4-0.6C114 0 114.1 0 114.4 0L114.4 0zM109.4 11.7V6l-1.7 0.8c0 0-0.4 1-0.4 2.4 0.1 1.1 0.7 2.4 1.1 3L109.4 11.7M145 16.5c-0.3 0.1-1.5-0.2-1.7-1.4 -0.3-1.2 0.6-2 1.8-3.3l-1.5-1.4V7.8c0 0 1.1-0.5 1.9-1.1 0.9-0.5 1.7-1.1 1.7-1.1s0.6 0.8 1.4 0.7c1.1-0.1 1.1-1 1-1.2 0.2 0.3 0.7 1.4-1.3 3.6l1.6 1.3v3.4c0 0-1.9 1-3.6 2.3 0 0-1-1.2-1.8-0.6C143.9 15.5 144.2 16.2 145 16.5L145 16.5zM143.6 13.9c0 0 0.8-1.4 2.3-1.1 1.4 0.3 1.9 1.8 1.9 1.8v-3.4l-1-0.8C145.8 11.4 143.9 12.9 143.6 13.9L143.6 13.9zM145.8 6.8v2.7l0.9 0.8c0 0 1.9-1.6 2.6-3 0 0-0.9 1.2-2 0.8C146.3 7.8 145.8 6.8 145.8 6.8"/></g><path id="XMLID_772_" class="st1" d="M84.7 8l0.7-0.7 0.1 0.1 -0.7 0.7v5.3c0 0-1.3 0.7-2.3 1.2 -0.9 0.5-1.9 1.1-1.9 1.1l-2.5-2.1 -0.6 0.6 -0.1-0.1 0.7-0.6V7.8h0c0 0 1.2-0.5 2.1-1.1 0.9-0.5 1.9-1.1 1.9-1.1L84.7 8 84.7 8zM80.4 12.7l2.1 1.9V8.8l-2.1-1.9V12.7M89.5 7.4l1.6-1.6c0 0 0.2 0.2 0.4 0.3 0.1 0.1 0.6 0.3 1 0.1C92.7 6 92.8 6 93 5.8c0.1 1.2-0.5 2.1-1.3 2.5 -0.3 0.1-1.2 0.4-2.1-0.7v5.7l1 0.9 0.8-0.7 0.1 0.1 -2.6 2.2L87 14l-0.7 0.7 -0.1-0.1 1.1-1 0-4.9 -0.8-1.1 -0.7 0.6L85.6 8l2.5-2.2L89.5 7.4M96.1 9.8L99 5.6c0 0 0.4 0.5 1 0.6 0.9 0.2 1.7-0.6 1.7-0.6 -0.2 1.1-0.7 2.4-1.9 2.6 -1 0.2-2-0.6-2-0.6l-0.2 0.3 4 6.1 0.8-0.7 0.1 0.1 -2.7 2.4L96.1 9.8M93.7 4.2c0-0.9-0.4-1.5-0.9-1.4L96 0.6v12.5h0l0.8 0.9 0.6-0.5 0.1 0.1L95 15.7l-1.7-1.6 -0.7 0.6 -0.1-0.1 1.2-1V4.2M67.4 4c0-0.8-0.3-1.3-0.9-1.3 -0.8 0-1 1.1-1 1.1s-0.1-0.9 0.6-1.7c0.4-0.4 1.2-1.1 2.4-0.8C69.7 1.6 70 2.6 70 3.4v11.6c0 0 0.5 0.1 0.8 0.1 0.4 0.1 0.7 0.2 0.7 0.2v-14h0.2v1.9l2.5-2 1.9 1.6 0.9-0.7L77 2.2 76.1 3v10.8c0 0.7-0.2 1.4-0.8 1.8 -1.5 0.9-3.3-0.1-4.9-0.4 -1.2-0.2-3-0.4-3.5 0.7 -0.2 0.4-0.1 0.9 0.4 1.3 1.1 0.7 5.9-1.2 7.5-0.4 1.5 0.7 1.5 1.8 1.3 2.6 -0.4 1.4-2.2 1.7-2.2 1.7s0.9-0.5 0.6-1.4c-0.1-0.4-0.4-0.5-1.4-0.4 -2.1 0.2-4.5 1.2-6.2 0.5 -0.9-0.4-1.5-1.4-1.4-2.5 0-1.5 1.8-2.1 1.8-2.1l0-5.6c0-0.2-1-0.2-1.2 0.2 -0.3 0.6 0.4 0.9 0.4 0.9s-0.6 0.1-1.1-0.5c-0.2-0.3-0.7-1.2-0.1-2.1 0.5-0.7 1.2-0.9 1.9-0.9V4L67.4 4zM71.7 15.4c0 0 0.7 0.2 1.3-0.2 0.6-0.5 0.5-1.2 0.5-1.2V9.7c0 0-0.3-0.4-0.9-0.4 -0.5 0-0.9 0.5-0.9 0.5V15.4L71.7 15.4zM73.5 4L72.3 3l-0.6 0.5v4c0 0 0.4 0.5 0.9 0.5 0.5 0 0.9-0.4 0.9-0.4V4L73.5 4zM73.5 7.7c0 0-0.3 0.4-0.9 0.4s-0.9-0.4-0.9-0.4v1.7c0 0 0.4-0.4 0.9-0.4s0.9 0.4 0.9 0.4V7.7"/></g></svg>